# xmcd
#
# Track frame offsets:
#	150
#	7620
#	20412
#	44762
#	54672
#	74350
#	91400
#	107465
#	126890
#	142410
#	155167
#	174387
#
# Disc length: 2521 seconds
#
# Revision: 2
# Processed by: cddbd v1.5.1PL0 Copyright (c) Steve Scherf et al.
# Submitted via: dBpowerAMP V4.0
#
DISCID=a409d70c
DTITLE=Chris Thompson - Dallas
DYEAR=2000
DGENRE=Country
TTITLE0=What's in Salem
TTITLE1=Colombian Friend
TTITLE2=Pink Leisure Suit
TTITLE3=Try to be a Man
TTITLE4=Shrevport, LA (Gone)
TTITLE5=Wife Swapping Days
TTITLE6=In and of Itself
TTITLE7=Take Me Away
TTITLE8=Playing Guiter/ Drinking Beer
TTITLE9=Blues Away
TTITLE10=I-15
TTITLE11=Untitled (1972)
EXTD=
EXTT0=
EXTT1=
EXTT2=
EXTT3=
EXTT4=
EXTT5=
EXTT6=
EXTT7=
EXTT8=
EXTT9=
EXTT10=
EXTT11=
PLAYORDER=
